<svg width="22" height="21" fill="none" xmlns="http://www.w3.org/2000/svg"><path d="M14.192 13.503c-.504 0-.913-.354-.913-.79 0-.436.41-.79.913-.79.503 0 .913.354.913.79a.415.415 0 10.83 0c0-.76-.567-1.4-1.328-1.574v-.216a.415.415 0 00-.83 0v.216c-.762.174-1.328.813-1.328 1.574 0 .893.782 1.62 1.743 1.62.503 0 .913.355.913.79 0 .436-.41.79-.913.79-.504 0-.913-.354-.913-.79a.415.415 0 00-.83 0c0 .76.566 1.4 1.328 1.574v.18a.415.415 0 10.83 0v-.18c.761-.174 1.328-.813 1.328-1.574 0-.893-.782-1.62-1.743-1.62z" fill="#fff"/><path fill-rule="evenodd" clip-rule="evenodd" d="M14.407 11.299v-.376a.215.215 0 00-.43 0v.376l-.156.035c-.682.156-1.172.723-1.172 1.379 0 .77.678 1.42 1.543 1.42.585 0 1.113.418 1.113.99 0 .573-.527.99-1.113.99s-1.113-.417-1.113-.99a.215.215 0 00-.43 0c0 .656.49 1.223 1.172 1.379l.156.035v.34a.215.215 0 00.43 0v-.34l.155-.035c.683-.156 1.173-.723 1.173-1.379 0-.77-.679-1.42-1.543-1.42-.586 0-1.113-.418-1.113-.99 0-.572.527-.99 1.113-.99.585 0 1.113.417 1.113.99a.215.215 0 10.43 0c0-.656-.49-1.223-1.173-1.379l-.155-.035zm-1.128 1.414c0 .436.41.79.913.79.96 0 1.743.727 1.743 1.62 0 .76-.567 1.4-1.328 1.574v.18a.415.415 0 11-.83 0v-.18c-.762-.174-1.328-.813-1.328-1.574a.415.415 0 01.83 0c0 .436.41.79.913.79.503 0 .913-.354.913-.79 0-.435-.41-.79-.913-.79-.961 0-1.743-.727-1.743-1.62 0-.76.566-1.4 1.328-1.574v-.216a.415.415 0 01.83 0v.216c.761.174 1.328.813 1.328 1.574a.415.415 0 11-.83 0c0-.436-.41-.79-.913-.79-.504 0-.913.354-.913.79z" fill="#fff"/><path d="M18.737 11.034A5.407 5.407 0 0016.53 9.08a.415.415 0 10-.36.748 4.593 4.593 0 012.59 4.117c0 .746-.184 1.486-.532 2.14a.415.415 0 00.732.39 5.406 5.406 0 00-.222-5.44z" fill="#fff"/><path fill-rule="evenodd" clip-rule="evenodd" d="M16.442 9.26a.215.215 0 10-.186.388 4.793 4.793 0 012.703 4.297c0 .779-.192 1.551-.556 2.235a.215.215 0 00.09.29.215.215 0 00.29-.089l.176.095a.415.415 0 11-.732-.39 4.574 4.574 0 00.532-2.141 4.593 4.593 0 00-2.59-4.117.415.415 0 11.36-.748 5.407 5.407 0 012.208 1.954 5.406 5.406 0 01.222 5.441l-.176-.093a5.206 5.206 0 00-.214-5.24 5.208 5.208 0 00-2.127-1.882z" fill="#fff"/><path d="M14.844 8.55h-.028a.415.415 0 000 .83H14.842a.415.415 0 00.002-.83z" fill="#fff"/><path fill-rule="evenodd" clip-rule="evenodd" d="M14.816 9.18h.025a.216.216 0 00.216-.214m-.24-.417a.415.415 0 000 .83h.025a.415.415 0 00.002-.83h-.028zm.026.2h-.027a.215.215 0 100 .43m.027-.43c.119.001.215.098.214.217l-.214-.217z" fill="#fff"/><path d="M12.219 18.062a4.593 4.593 0 01-2.59-4.117c0-.747.184-1.487.532-2.141a.415.415 0 10-.733-.39 5.406 5.406 0 00.222 5.441 5.41 5.41 0 002.209 1.955.413.413 0 00.554-.194.415.415 0 00-.194-.554z" fill="#fff"/><path fill-rule="evenodd" clip-rule="evenodd" d="M12.132 18.242a4.793 4.793 0 01-2.703-4.297c0-.78.191-1.552.555-2.235a.215.215 0 10-.38-.202 5.206 5.206 0 00.214 5.24 5.207 5.207 0 002.127 1.882.214.214 0 00.287-.1.215.215 0 00-.1-.288zm.28.374a.415.415 0 01-.553.194 5.41 5.41 0 01-2.209-1.955 5.406 5.406 0 01-.222-5.441.415.415 0 01.733.39 4.574 4.574 0 00-.532 2.14 4.593 4.593 0 002.59 4.118c.206.1.293.347.194.554z" fill="#fff"/><path d="M13.571 18.51h-.024a.415.415 0 10-.004.83h.028a.415.415 0 100-.83z" fill="#fff"/><path fill-rule="evenodd" clip-rule="evenodd" d="M13.57 18.71h-.023a.215.215 0 10-.003.43h.027a.215.215 0 000-.43zm.001.63h-.028a.415.415 0 11.004-.83h.024a.415.415 0 110 .83z" fill="#fff"/><path d="M16.078 7.145a1.905 1.905 0 00-.184-.339h1.08c1.053 0 1.91-.856 1.91-1.909 0-1.052-.857-1.909-1.91-1.909h-3.323A1.911 1.911 0 0012.077 0H1.91C.856 0 0 .856 0 1.91c0 1.052.856 1.908 1.91 1.908h3.323a1.898 1.898 0 000 2.158H4.15c-1.052 0-1.909.857-1.909 1.91 0 .604.283 1.143.723 1.493a1.906 1.906 0 000 2.989 1.906 1.906 0 000 2.988c-.44.35-.723.89-.723 1.494 0 1.052.857 1.909 1.91 1.909h4.89A7.037 7.037 0 0014.194 21a7.063 7.063 0 007.055-7.055c0-3.238-2.192-5.973-5.17-6.8zm.896-3.327a1.08 1.08 0 010 2.158H6.806a1.08 1.08 0 010-2.158h10.168zM1.91 2.988a1.08 1.08 0 010-2.158h10.168a1.08 1.08 0 010 2.158H1.91zM4.15 6.806h10.168c.167 0 .327.04.471.109a7.034 7.034 0 00-5.588 2.05h-5.05a1.08 1.08 0 010-2.159zm0 2.988h4.342a7.036 7.036 0 00-1.067 2.159H4.15a1.08 1.08 0 010-2.159zm0 2.989h3.085a7.072 7.072 0 00-.026 2.158H4.15a1.08 1.08 0 010-2.158zm0 5.146a1.08 1.08 0 010-2.158h3.228c.21.78.55 1.508.996 2.158H4.15zm10.044 2.241a6.232 6.232 0 01-6.226-6.225 6.232 6.232 0 016.226-6.226 6.232 6.232 0 016.225 6.226 6.232 6.232 0 01-6.225 6.225z" fill="#fff"/><path fill-rule="evenodd" clip-rule="evenodd" d="M15.931 7.312l-.037-.09c-.046-.107-.1-.209-.165-.303l-.214-.313h1.46c.941 0 1.708-.767 1.708-1.709 0-.942-.767-1.709-1.709-1.709H13.27l.216-.313A1.711 1.711 0 0012.077.2H1.91C.967.2.2.967.2 1.91c0 .941.767 1.708 1.71 1.708h3.703l-.216.314a1.698 1.698 0 000 1.93l.216.314H4.15c-.942 0-1.709.767-1.709 1.71 0 .54.253 1.023.647 1.337l.197.156-.197.157a1.706 1.706 0 000 2.675l.197.157-.197.156a1.706 1.706 0 000 2.675l.197.157-.197.156a1.706 1.706 0 00-.647 1.338c0 .942.767 1.709 1.71 1.709h4.977l.06.063a6.837 6.837 0 005.006 2.178 6.863 6.863 0 006.855-6.855c0-3.146-2.13-5.804-5.024-6.607l-.094-.026zm-1.055-.577l-.104.379a6.833 6.833 0 00-5.43 1.992l-.058.058H4.15a1.28 1.28 0 010-2.558h10.168c.199 0 .388.046.558.129zm-5.99 2.86l-.233.317a6.835 6.835 0 00-1.036 2.097l-.042.143H4.15a1.28 1.28 0 010-2.558h4.736zM7.47 12.582l-.04.232a6.872 6.872 0 00-.024 2.098l.032.228H4.15a1.28 1.28 0 010-2.558h3.32zm.06 2.988l.04.148c.204.758.535 1.465.968 2.097l.215.313H4.15a1.28 1.28 0 010-2.558h3.382zm-3.38-9.595c-1.053 0-1.91.857-1.91 1.91a1.902 1.902 0 00.723 1.493 1.902 1.902 0 000 2.988 1.902 1.902 0 000 2.988 1.902 1.902 0 00-.723 1.494c0 1.053.857 1.91 1.91 1.91h4.89A7.037 7.037 0 0014.194 21a7.063 7.063 0 007.055-7.055c0-3.238-2.192-5.973-5.17-6.8a1.95 1.95 0 00-.185-.339h1.08c1.053 0 1.91-.856 1.91-1.909 0-1.052-.857-1.909-1.91-1.909h-3.323a1.917 1.917 0 00.335-1.079C13.986.856 13.13 0 12.077 0H1.91C.856 0 0 .856 0 1.91c0 1.052.856 1.908 1.91 1.908h3.323a1.915 1.915 0 00-.336 1.08 1.896 1.896 0 00.336 1.078H4.15zm12.823-2.358a1.28 1.28 0 010 2.558H6.806a1.28 1.28 0 010-2.558h10.168zM1.91 3.188a1.28 1.28 0 010-2.558h10.168a1.28 1.28 0 010 2.558H1.91zM12.91 7.006a7.047 7.047 0 00-3.709 1.958h-5.05a1.08 1.08 0 010-2.158h10.167c.167 0 .327.04.471.109a7.194 7.194 0 00-.595-.026c-.438 0-.867.04-1.284.117zM8.351 9.994a7.03 7.03 0 00-.926 1.959H4.15a1.08 1.08 0 010-2.159h4.342a7.075 7.075 0 00-.14.2zm-4.2 4.947a1.08 1.08 0 010-2.158h3.084a7.053 7.053 0 00-.026 2.158H4.15zm0 2.988a1.08 1.08 0 010-2.158h3.227a7.022 7.022 0 00.996 2.158H4.15zm10.043 2.441a6.432 6.432 0 01-6.426-6.425 6.432 6.432 0 016.426-6.426 6.432 6.432 0 016.425 6.426 6.432 6.432 0 01-6.425 6.425zm3.86-15.473a1.08 1.08 0 00-1.08-1.079H6.806a1.08 1.08 0 000 2.158h10.168a1.08 1.08 0 001.08-1.079zM.83 1.91a1.08 1.08 0 001.08 1.08h10.167a1.08 1.08 0 000-2.159H1.91A1.08 1.08 0 00.83 1.91zm7.138 12.036a6.232 6.232 0 006.226 6.225 6.232 6.232 0 006.225-6.225 6.232 6.232 0 00-6.225-6.226 6.232 6.232 0 00-6.226 6.226z" fill="#fff"/></svg>