<svg width="54" height="78" viewBox="0 0 54 78" fill="none" xmlns="http://www.w3.org/2000/svg">
<path d="M54 39.0241C54 35.0624 50.7769 31.8393 46.8151 31.8393C42.8534 31.8393 39.6303 35.0624 39.6303 39.0241C39.6303 42.6 42.256 45.5732 45.6807 46.1186V47.5721C45.6807 52.1365 42.3984 55.947 38.0704 56.7718C37.1995 53.7 35.2301 51.0027 32.4944 49.252L32.4235 48.2156C32.368 47.4026 31.7423 46.7284 30.9357 46.612L28.941 46.326C32.8726 44.2698 35.5634 40.1533 35.5634 35.4175V29.5414C37.2662 28.7887 38.4202 26.8211 38.4202 24.3879C38.4202 21.7432 37.2786 20.0469 35.2425 19.5724C35.6177 17.915 36.244 14.1713 35.1362 11.1314C33.9426 7.85621 31.0935 6.1303 29.9519 5.55066C29.3487 4.1001 27.0993 0.301453 20.0828 0.301453C12.4317 0.301453 9.04963 3.38339 8.57931 3.85253C8.00322 4.35476 2.33154 9.43322 2.88163 14.2168C3.17647 16.7847 3.31001 18.5644 3.36909 19.5629C1.30758 20.0238 0.151261 21.7255 0.151261 24.3879C0.151261 26.8382 1.32117 28.8152 3.04235 29.5568V35.4175C3.04235 40.1503 5.73017 44.2645 9.65763 46.3219L7.63629 46.612C6.82918 46.7284 6.20345 47.4026 6.14791 48.2156L6.0776 49.252C2.3144 51.6597 0 55.859 0 60.3596V68.0662C0 68.6925 0.508141 69.2006 1.13445 69.2006C1.76077 69.2006 2.26891 68.6925 2.26891 68.0662V60.3596C2.26891 57.2416 3.61016 54.2985 5.87257 52.2529L5.58778 56.4256C5.55882 56.8487 5.76799 57.2522 6.1296 57.472L8.09776 58.6691L7.50985 61.7357C7.45076 62.0435 7.52226 62.3626 7.7066 62.6161L17.0582 75.4779H2.26891V72.8876C2.26891 72.2613 1.76077 71.7531 1.13445 71.7531C0.508141 71.7531 0 72.2613 0 72.8876V76.6124C0 77.2387 0.508141 77.7468 1.13445 77.7468H37.437C38.0633 77.7468 38.5714 77.2387 38.5714 76.6124V60.3596C38.5714 59.9022 38.5472 59.4484 38.4999 58.9994C43.8744 57.9731 47.9496 53.2409 47.9496 47.5721V46.1186C51.3742 45.5732 54 42.6 54 39.0241ZM35.7501 56.9397H32.8968C32.9636 56.7795 32.9967 56.6052 32.9842 56.4256L32.6995 52.2535C34.1069 53.5262 35.1568 55.1458 35.7501 56.9397ZM30.6734 55.8921L29.0113 56.9036C27.0319 56.7364 25.2256 55.9523 23.7875 54.7434C23.8489 54.3517 24.5574 49.8635 24.8475 48.0301L30.1895 48.7976L30.6734 55.8921ZM19.2739 44.3425H19.2975C20.4503 44.3425 21.5718 44.206 22.6465 43.9496V45.4527H15.9249V43.9496C16.9997 44.206 18.1211 44.3425 19.2739 44.3425ZM15.9728 47.7216H18.1725C18.1962 49.5734 18.6547 51.3217 19.45 52.8698C19.395 52.871 19.3407 52.8733 19.2857 52.8733C18.4071 52.8733 17.5362 52.7499 16.7308 52.5171C16.4933 51.0145 16.241 49.4186 15.9728 47.7216ZM21.8436 52.5005C20.9785 51.1073 20.4692 49.4723 20.4414 47.7216H22.5993C22.3316 49.4121 22.0799 51.0027 21.8436 52.5005ZM19.2857 55.1423C19.8293 55.1423 20.3629 55.1056 20.8852 55.0341C21.0382 55.2167 21.1972 55.3928 21.3602 55.5653C20.4225 61.52 19.7572 65.7848 19.2863 68.8443C18.7988 65.6791 18.1034 61.2228 17.1131 54.9402C17.8162 55.0731 18.5418 55.1423 19.2857 55.1423ZM24.9154 45.3139V43.2045C29.0367 41.4561 32.183 37.846 33.2944 33.4352V35.4175C33.2944 40.3867 29.6636 44.5215 24.9154 45.3139ZM36.1513 24.3879C36.1513 25.9691 35.3424 27.604 33.9881 27.604C33.9019 27.604 33.8162 27.5981 33.7311 27.588V21.7208C33.8162 21.7107 33.9019 21.7048 33.9881 21.7048C35.0576 21.7048 36.1513 22.0239 36.1513 24.3879ZM10.0949 5.5418C10.1268 5.51462 10.1575 5.48508 10.1865 5.45376C10.213 5.42481 12.9546 2.57036 20.0828 2.57036C26.7323 2.57036 27.9005 6.50077 27.9442 6.65676C28.0263 7.01305 28.2739 7.28543 28.6113 7.42606C28.6438 7.43906 31.877 8.81399 33.0043 11.9083C33.8965 14.3569 33.3447 17.6237 33.0581 18.9455C32.157 19.0743 31.4622 19.8507 31.4622 20.7866V22.2478C31.3493 21.9311 31.2329 21.5559 31.1029 21.1199C30.6563 19.6208 30.1493 17.9209 28.821 16.7268C27.2038 15.2721 26.467 12.4945 26.2254 11.3671C26.1048 10.8058 25.6629 10.3709 25.0998 10.2598C24.5349 10.1487 23.9594 10.3845 23.6339 10.8607C22.9467 11.8658 21.2787 13.5994 17.8251 13.9196C17.7767 13.9244 17.7282 13.9291 17.6803 13.9344C17.057 14.0012 16.6062 14.5601 16.6729 15.1829C16.7397 15.8062 17.2998 16.2559 17.9214 16.1903C17.9592 16.1862 17.9965 16.1826 18.0343 16.1791C21.1853 15.8866 23.1996 14.6145 24.4209 13.4268C24.9273 15.0612 25.8118 17.0713 27.3043 18.4137C28.1575 19.1812 28.5492 20.4965 28.9286 21.7686C29.3735 23.26 29.9124 25.0627 31.4622 25.6565V29.9089C31.4622 36.617 26.0056 42.0736 19.2975 42.0736H19.2739C12.5658 42.0736 7.10924 36.617 7.10924 29.9089V25.6075C7.72788 25.4072 8.26142 25.1318 8.69689 24.795C8.49954 25.3268 8.39141 25.9011 8.39141 26.5002C8.39141 29.2105 10.5965 31.4162 13.3074 31.4162C15.6277 31.4162 17.5758 29.7996 18.0898 27.6347H20.4816C20.9951 29.7996 22.9437 31.4162 25.264 31.4162C27.9743 31.4162 30.18 29.2105 30.18 26.5002C30.18 23.7894 27.9743 21.5843 25.264 21.5843C22.9437 21.5843 20.9951 23.2003 20.4816 25.3658H18.0898C17.5758 23.2003 15.6277 21.5843 13.3074 21.5843C11.9986 21.5843 10.8086 22.0995 9.92647 22.9362C9.94774 22.8381 9.96488 22.7382 9.9761 22.6366C10.073 21.7663 11.5141 19.2994 13.9236 17.6864C14.4442 17.3378 14.5836 16.6329 14.2356 16.1123C13.887 15.5918 13.1821 15.4523 12.6616 15.8009C9.8532 17.6805 7.91045 20.6826 7.72138 22.3861C7.68711 22.691 7.43422 22.9409 7.10924 23.1341V21.3208C7.10924 21.319 7.10924 21.3178 7.10924 21.3166C7.10747 20.7843 6.88117 20.3051 6.52015 19.9665C6.50775 19.9541 6.49475 19.9417 6.48175 19.9293C6.4717 19.9204 6.46107 19.9121 6.45102 19.9039C6.43448 19.8897 6.41735 19.8755 6.39962 19.8625C6.18041 19.6888 5.92161 19.5624 5.63859 19.5021C5.5795 18.487 5.44302 16.6364 5.13518 13.958C4.77948 10.8578 8.59467 6.83106 10.0949 5.5418ZM10.6603 26.5002C10.6603 25.0408 11.848 23.8532 13.3074 23.8532C14.7668 23.8532 15.9544 25.0408 15.9544 26.5002C15.9544 27.9597 14.7668 29.1473 13.3074 29.1473C11.848 29.1473 10.6603 27.9597 10.6603 26.5002ZM22.617 26.5002C22.617 25.0408 23.8046 23.8532 25.264 23.8532C26.7235 23.8532 27.9111 25.0408 27.9111 26.5002C27.9111 27.9597 26.7235 29.1473 25.264 29.1473C23.8046 29.1473 22.617 27.9597 22.617 26.5002ZM4.58331 21.7048C4.66958 21.7048 4.75525 21.7119 4.84034 21.722V27.588C4.75525 27.5981 4.66958 27.604 4.58331 27.604C3.22906 27.604 2.42017 25.9691 2.42017 24.3879C2.42017 22.0239 3.51385 21.7048 4.58331 21.7048ZM5.31125 35.4175V33.5711C6.4528 37.9198 9.57727 41.4744 13.656 43.2045V45.3074C8.92496 44.5008 5.31125 40.3749 5.31125 35.4175ZM9.94951 57.14L7.89804 55.8921L8.30042 50.0035C8.30101 49.9964 8.3016 49.9899 8.3016 49.9828L8.38255 48.797L13.7245 48.0301C14.0152 49.8682 16.8525 67.9244 17.5108 72.2424L9.83075 61.6795L10.4742 58.3229C10.5634 57.8578 10.3543 57.3863 9.94951 57.14ZM36.3025 75.4779H21.5139L26.4865 68.6381C26.8552 68.1317 26.743 67.4221 26.236 67.0534C25.7296 66.6853 25.02 66.7976 24.6513 67.3039L21.0613 72.2418C21.6072 68.6594 22.4504 63.2489 23.3892 57.2735C24.8191 58.2224 26.47 58.8623 28.2467 59.101L28.7407 61.6795L27.5093 63.3729C27.1412 63.8799 27.2535 64.5895 27.7598 64.9576C28.2668 65.3263 28.9764 65.2141 29.3445 64.7077L30.8648 62.6166C31.0498 62.3626 31.1207 62.0441 31.0616 61.7357L30.5777 59.2086H36.2405C36.2807 59.5885 36.3019 59.9725 36.3019 60.3596V75.4779H36.3025ZM46.8151 43.9401C44.1043 43.9401 41.8992 41.735 41.8992 39.0241C41.8992 36.3133 44.1043 34.1082 46.8151 34.1082C49.526 34.1082 51.7311 36.3133 51.7311 39.0241C51.7311 41.735 49.526 43.9401 46.8151 43.9401Z" fill="black"/>
</svg>
